<mxfile host="65bd71144e">
    <diagram id="CjNxRFtORhyNGExULP49" name="Page-1">
        <mxGraphModel dx="983" dy="604" grid="1" gridSize="10" guides="1" tooltips="1" connect="1" arrows="1" fold="1" page="1" pageScale="1" pageWidth="827" pageHeight="1169" math="0" shadow="0">
            <root>
                <mxCell id="0"/>
                <mxCell id="1" parent="0"/>
                <mxCell id="19" value="TP" style="rounded=0;whiteSpace=wrap;html=1;fillColor=#60A917;" vertex="1" parent="1">
                    <mxGeometry x="480" y="280" width="120" height="80" as="geometry"/>
                </mxCell>
                <mxCell id="20" value="FP" style="rounded=0;whiteSpace=wrap;html=1;fillColor=#E51400;" vertex="1" parent="1">
                    <mxGeometry x="600" y="280" width="120" height="80" as="geometry"/>
                </mxCell>
                <mxCell id="21" value="FN" style="rounded=0;whiteSpace=wrap;html=1;fillColor=#E51400;" vertex="1" parent="1">
                    <mxGeometry x="480" y="360" width="120" height="80" as="geometry"/>
                </mxCell>
                <mxCell id="22" value="TN" style="rounded=0;whiteSpace=wrap;html=1;fillColor=#60A917;" vertex="1" parent="1">
                    <mxGeometry x="600" y="360" width="120" height="80" as="geometry"/>
                </mxCell>
                <mxCell id="23" value="Predicted&lt;br&gt;Class" style="text;html=1;strokeColor=none;fillColor=none;align=center;verticalAlign=middle;whiteSpace=wrap;rounded=0;" vertex="1" parent="1">
                    <mxGeometry x="300" y="350" width="40" height="20" as="geometry"/>
                </mxCell>
                <mxCell id="24" value="Ground Truth Class" style="text;html=1;strokeColor=none;fillColor=none;align=center;verticalAlign=middle;whiteSpace=wrap;rounded=0;" vertex="1" parent="1">
                    <mxGeometry x="550" y="210" width="110" height="20" as="geometry"/>
                </mxCell>
                <mxCell id="25" value="predicted negatives" style="text;html=1;align=center;verticalAlign=middle;resizable=0;points=[];autosize=1;strokeColor=none;" vertex="1" parent="1">
                    <mxGeometry x="354" y="390" width="120" height="20" as="geometry"/>
                </mxCell>
                <mxCell id="27" value="real positives" style="text;html=1;align=center;verticalAlign=middle;resizable=0;points=[];autosize=1;strokeColor=none;" vertex="1" parent="1">
                    <mxGeometry x="495" y="250" width="90" height="20" as="geometry"/>
                </mxCell>
                <mxCell id="28" value="real negatives" style="text;html=1;align=center;verticalAlign=middle;resizable=0;points=[];autosize=1;strokeColor=none;" vertex="1" parent="1">
                    <mxGeometry x="615" y="250" width="90" height="20" as="geometry"/>
                </mxCell>
                <mxCell id="29" value="predicted positives" style="text;html=1;align=center;verticalAlign=middle;resizable=0;points=[];autosize=1;strokeColor=none;" vertex="1" parent="1">
                    <mxGeometry x="359" y="310" width="110" height="20" as="geometry"/>
                </mxCell>
            </root>
        </mxGraphModel>
    </diagram>
</mxfile>